<svg width="224" height="339" viewBox="0 0 224 339" fill="none" xmlns="http://www.w3.org/2000/svg">
<g clip-path="url(#clip0_605_5657)">
<path d="M34 133C31.6266 133 29.3066 133.704 27.3332 135.022C25.3598 136.341 23.8217 138.215 22.9135 140.408C22.0052 142.601 21.7676 145.013 22.2306 147.341C22.6936 149.669 23.8365 151.807 25.5147 153.485C27.193 155.164 29.3312 156.306 31.6589 156.769C33.9867 157.232 36.3995 156.995 38.5922 156.087C40.7849 155.178 42.6591 153.64 43.9776 151.667C45.2962 149.693 46 147.373 46 145C45.9966 141.818 44.7312 138.768 42.4815 136.519C40.2318 134.269 37.1815 133.003 34 133V133ZM34 155C32.0222 155 30.0888 154.414 28.4443 153.315C26.7998 152.216 25.5181 150.654 24.7612 148.827C24.0043 147 23.8063 144.989 24.1922 143.049C24.578 141.109 25.5304 139.327 26.9289 137.929C28.3275 136.53 30.1093 135.578 32.0491 135.192C33.9889 134.806 35.9996 135.004 37.8268 135.761C39.6541 136.518 41.2159 137.8 42.3147 139.444C43.4135 141.089 44 143.022 44 145C43.9971 147.651 42.9426 150.193 41.0679 152.068C39.1931 153.943 36.6513 154.997 34 155V155ZM39 145C39 145.265 38.8946 145.52 38.7071 145.707C38.5196 145.895 38.2652 146 38 146H35V149C35 149.265 34.8946 149.52 34.7071 149.707C34.5196 149.895 34.2652 150 34 150C33.7348 150 33.4804 149.895 33.2929 149.707C33.1054 149.52 33 149.265 33 149V146H30C29.7348 146 29.4804 145.895 29.2929 145.707C29.1054 145.52 29 145.265 29 145C29 144.735 29.1054 144.48 29.2929 144.293C29.4804 144.105 29.7348 144 30 144H33V141C33 140.735 33.1054 140.48 33.2929 140.293C33.4804 140.105 33.7348 140 34 140C34.2652 140 34.5196 140.105 34.7071 140.293C34.8946 140.48 35 140.735 35 141V144H38C38.2652 144 38.5196 144.105 38.7071 144.293C38.8946 144.48 39 144.735 39 145Z" fill="#5C5470"/>
</g>
<path d="M88.48 96.0001C88.2177 95.999 87.9663 95.8948 87.78 95.7101L83.19 91.1201C82.6282 90.5576 82.3127 89.7951 82.3127 89.0001C82.3127 88.2051 82.6282 87.4426 83.19 86.8801L87.78 82.2901C87.9674 82.1038 88.2209 81.9993 88.485 81.9993C88.7492 81.9993 89.0027 82.1038 89.19 82.2901C89.2838 82.383 89.3582 82.4936 89.4089 82.6155C89.4597 82.7373 89.4858 82.868 89.4858 83.0001C89.4858 83.1321 89.4597 83.2628 89.4089 83.3846C89.3582 83.5065 89.2838 83.6171 89.19 83.7101L84.6 88.2901C84.5063 88.383 84.4319 88.4936 84.3812 88.6155C84.3304 88.7373 84.3042 88.868 84.3042 89.0001C84.3042 89.1321 84.3304 89.2628 84.3812 89.3846C84.4319 89.5065 84.5063 89.6171 84.6 89.7101L89.19 94.2901C89.2838 94.383 89.3582 94.4936 89.4089 94.6155C89.4597 94.7373 89.4858 94.868 89.4858 95.0001C89.4858 95.1321 89.4597 95.2628 89.4089 95.3846C89.3582 95.5065 89.2838 95.6171 89.19 95.7101C89.0966 95.8027 88.9858 95.8761 88.864 95.9258C88.7421 95.9756 88.6117 96.0008 88.48 96.0001Z" fill="#5C5470"/>
<path d="M95.4799 96.0001C95.2175 95.999 94.9661 95.8948 94.7799 95.7101L88.7799 89.7101C88.6861 89.6171 88.6117 89.5065 88.561 89.3846C88.5102 89.2628 88.4841 89.1321 88.4841 89.0001C88.4841 88.868 88.5102 88.7373 88.561 88.6155C88.6117 88.4936 88.6861 88.383 88.7799 88.2901L94.7799 82.2901C94.9672 82.1038 95.2207 81.9993 95.4849 81.9993C95.749 81.9993 96.0025 82.1038 96.1899 82.2901C96.2836 82.383 96.358 82.4936 96.4087 82.6155C96.4595 82.7373 96.4857 82.868 96.4857 83.0001C96.4857 83.1321 96.4595 83.2628 96.4087 83.3846C96.358 83.5065 96.2836 83.6171 96.1899 83.7101L90.8999 89.0001L96.1899 94.2901C96.2836 94.383 96.358 94.4936 96.4087 94.6155C96.4595 94.7373 96.4857 94.868 96.4857 95.0001C96.4857 95.1321 96.4595 95.2628 96.4087 95.3846C96.358 95.5065 96.2836 95.6171 96.1899 95.7101C96.0964 95.8027 95.9856 95.8761 95.8638 95.9258C95.7419 95.9756 95.6115 96.0008 95.4799 96.0001Z" fill="#5C5470"/>
<path d="M147.1 96.0001C146.902 95.9992 146.709 95.9398 146.545 95.8292C146.381 95.7187 146.254 95.5619 146.179 95.3789C146.104 95.1959 146.085 94.9947 146.124 94.8009C146.164 94.6071 146.26 94.4293 146.4 94.2901L151 89.7101C151.094 89.6171 151.168 89.5065 151.219 89.3846C151.27 89.2628 151.296 89.1321 151.296 89.0001C151.296 88.868 151.27 88.7373 151.219 88.6155C151.168 88.4936 151.094 88.383 151 88.2901L146.4 83.7101C146.306 83.6171 146.232 83.5065 146.181 83.3846C146.13 83.2628 146.104 83.1321 146.104 83.0001C146.104 82.868 146.13 82.7373 146.181 82.6155C146.232 82.4936 146.306 82.383 146.4 82.2901C146.587 82.1038 146.841 81.9993 147.105 81.9993C147.369 81.9993 147.623 82.1038 147.81 82.2901L152.4 86.8801C152.962 87.4426 153.277 88.2051 153.277 89.0001C153.277 89.7951 152.962 90.5576 152.4 91.1201L147.81 95.7101C147.717 95.8027 147.606 95.8761 147.484 95.9258C147.362 95.9756 147.232 96.0008 147.1 96.0001Z" fill="#5C5470"/>
<path d="M140.1 96.0001C139.902 95.9992 139.709 95.9398 139.545 95.8292C139.381 95.7187 139.254 95.5619 139.179 95.3789C139.104 95.1959 139.085 94.9947 139.124 94.8009C139.164 94.6071 139.26 94.4293 139.4 94.2901L144.69 89.0001L139.4 83.7101C139.306 83.6171 139.232 83.5065 139.181 83.3846C139.13 83.2628 139.104 83.1321 139.104 83.0001C139.104 82.868 139.13 82.7373 139.181 82.6155C139.232 82.4936 139.306 82.383 139.4 82.2901C139.587 82.1038 139.841 81.9993 140.105 81.9993C140.369 81.9993 140.623 82.1038 140.81 82.2901L146.81 88.2901C146.904 88.383 146.978 88.4936 147.029 88.6155C147.08 88.7373 147.106 88.868 147.106 89.0001C147.106 89.1321 147.08 89.2628 147.029 89.3846C146.978 89.5065 146.904 89.6171 146.81 89.7101L140.81 95.7101C140.717 95.8027 140.606 95.8761 140.484 95.9258C140.362 95.9756 140.232 96.0008 140.1 96.0001Z" fill="#5C5470"/>
<path d="M40.7099 29.21C40.6169 29.1163 40.5063 29.0419 40.3845 28.9911C40.2626 28.9403 40.1319 28.9142 39.9999 28.9142C39.8679 28.9142 39.7372 28.9403 39.6153 28.9911C39.4934 29.0419 39.3828 29.1163 39.2899 29.21L34.7099 33.79C34.6169 33.8837 34.5063 33.9581 34.3845 34.0089C34.2626 34.0596 34.1319 34.0858 33.9999 34.0858C33.8679 34.0858 33.7372 34.0596 33.6153 34.0089C33.4934 33.9581 33.3828 33.8837 33.2899 33.79L28.7099 29.21C28.6169 29.1163 28.5063 29.0419 28.3845 28.9911C28.2626 28.9403 28.1319 28.9142 27.9999 28.9142C27.8679 28.9142 27.7372 28.9403 27.6153 28.9911C27.4934 29.0419 27.3828 29.1163 27.2899 29.21C27.1036 29.3973 26.9991 29.6508 26.9991 29.915C26.9991 30.1792 27.1036 30.4326 27.2899 30.62L31.8799 35.21C32.4424 35.7718 33.2049 36.0873 33.9999 36.0873C34.7949 36.0873 35.5574 35.7718 36.1199 35.21L40.7099 30.62C40.8961 30.4326 41.0007 30.1792 41.0007 29.915C41.0007 29.6508 40.8961 29.3973 40.7099 29.21V29.21Z" fill="#5C5470"/>
<path d="M88.5999 33.7101C88.5062 33.6171 88.4318 33.5065 88.381 33.3846C88.3303 33.2628 88.3041 33.1321 88.3041 33.0001C88.3041 32.868 88.3303 32.7373 88.381 32.6155C88.4318 32.4936 88.5062 32.383 88.5999 32.2901L93.1899 27.7101C93.2836 27.6171 93.358 27.5065 93.4088 27.3846C93.4596 27.2628 93.4857 27.1321 93.4857 27.0001C93.4857 26.868 93.4596 26.7373 93.4088 26.6155C93.358 26.4936 93.2836 26.383 93.1899 26.2901C93.0026 26.1038 92.7491 25.9993 92.4849 25.9993C92.2207 25.9993 91.9673 26.1038 91.7799 26.2901L87.1899 30.8801C86.6281 31.4426 86.3126 32.2051 86.3126 33.0001C86.3126 33.7951 86.6281 34.5576 87.1899 35.1201L91.7799 39.7101C91.9662 39.8948 92.2176 39.999 92.4799 40.0001C92.6115 40.0008 92.742 39.9756 92.8638 39.9258C92.9857 39.8761 93.0965 39.8027 93.1899 39.7101C93.2836 39.6171 93.358 39.5065 93.4088 39.3846C93.4596 39.2628 93.4857 39.1321 93.4857 39.0001C93.4857 38.868 93.4596 38.7373 93.4088 38.6155C93.358 38.4936 93.2836 38.383 93.1899 38.2901L88.5999 33.7101Z" fill="#5C5470"/>
<path d="M149.4 30.8801L144.81 26.2901C144.622 26.1038 144.369 25.9993 144.105 25.9993C143.841 25.9993 143.587 26.1038 143.4 26.2901C143.306 26.383 143.232 26.4936 143.181 26.6155C143.13 26.7373 143.104 26.868 143.104 27.0001C143.104 27.1321 143.13 27.2628 143.181 27.3846C143.232 27.5065 143.306 27.6171 143.4 27.7101L148 32.2901C148.094 32.383 148.168 32.4936 148.219 32.6155C148.269 32.7373 148.296 32.868 148.296 33.0001C148.296 33.1321 148.269 33.2628 148.219 33.3846C148.168 33.5065 148.094 33.6171 148 33.7101L143.4 38.2901C143.211 38.477 143.105 38.7312 143.104 38.9965C143.103 39.2619 143.208 39.5168 143.395 39.7051C143.582 39.8934 143.836 39.9997 144.101 40.0006C144.367 40.0016 144.621 39.897 144.81 39.7101L149.4 35.1201C149.962 34.5576 150.277 33.7951 150.277 33.0001C150.277 32.2051 149.962 31.4426 149.4 30.8801V30.8801Z" fill="#5C5470"/>
<path d="M208 36.4999C207.868 36.5007 207.738 36.4755 207.616 36.4257C207.494 36.3759 207.383 36.3026 207.29 36.2099L202.71 31.6199C202.617 31.5262 202.506 31.4518 202.384 31.401C202.263 31.3503 202.132 31.3241 202 31.3241C201.868 31.3241 201.737 31.3503 201.615 31.401C201.493 31.4518 201.383 31.5262 201.29 31.6199L196.71 36.2099C196.522 36.3982 196.266 36.504 196 36.504C195.734 36.504 195.478 36.3982 195.29 36.2099C195.102 36.0216 194.996 35.7662 194.996 35.4999C194.996 35.3681 195.022 35.2375 195.072 35.1157C195.123 34.9939 195.197 34.8832 195.29 34.7899L199.88 30.2099C200.45 29.6624 201.209 29.3566 202 29.3566C202.79 29.3566 203.55 29.6624 204.12 30.2099L208.71 34.7899C208.804 34.8829 208.878 34.9935 208.929 35.1154C208.979 35.2372 209.006 35.3679 209.006 35.4999C209.006 35.6319 208.979 35.7626 208.929 35.8845C208.878 36.0064 208.804 36.117 208.71 36.2099C208.616 36.3026 208.506 36.3759 208.384 36.4257C208.262 36.4755 208.131 36.5007 208 36.4999Z" fill="#5C5470"/>
<g clip-path="url(#clip1_605_5657)">
<path d="M39.2459 307.193C40.2399 306.105 40.85 304.721 40.9829 303.253C41.0215 302.95 40.9903 302.643 40.8917 302.354C40.7931 302.065 40.6297 301.803 40.4141 301.587C40.1985 301.371 39.9364 301.207 39.6478 301.108C39.3591 301.009 39.0517 300.978 38.7489 301.016C37.8385 301.088 36.9544 301.356 36.1575 301.802C35.3606 302.248 34.6699 302.861 34.1329 303.6C33.793 302.749 33.3123 301.962 32.7109 301.271C32.5243 301.086 32.2724 300.982 32.0097 300.981C31.747 300.98 31.4945 301.083 31.3069 301.267C31.1193 301.451 31.0116 301.701 31.0071 301.964C31.0026 302.227 31.1017 302.481 31.2829 302.671C32.2743 303.905 32.8544 305.419 32.9419 307H30.4999C28.1809 307.071 25.9843 308.058 24.3912 309.745C22.7981 311.431 21.9383 313.681 21.9999 316C21.8389 321.6 27.6439 326.773 32.7499 324.385C33.1399 324.137 33.5932 324.007 34.0553 324.01C34.5174 324.014 34.9687 324.15 35.3549 324.404C36.0078 324.781 36.746 324.987 37.4999 325C47.7639 324.716 49.0659 309.582 39.2459 307.193ZM36.2229 304.168C36.9986 303.49 37.9726 303.08 38.9999 303V303C38.918 304.025 38.5089 304.997 37.8329 305.772C37.0566 306.45 36.0824 306.859 35.0549 306.94C35.1362 305.914 35.5458 304.942 36.2229 304.168V304.168ZM37.4999 323C37.0593 322.983 36.6305 322.852 36.2559 322.619C35.5695 322.223 34.7926 322.009 33.9999 322C33.2495 322.017 32.5151 322.221 31.8629 322.593C28.0049 324.261 23.8999 320.141 23.9999 316C23.9383 314.211 24.5874 312.47 25.8055 311.159C27.0235 309.847 28.7113 309.071 30.4999 309H37.4999C46.0999 309.321 46.0999 322.682 37.4999 323Z" fill="#5C5470"/>
</g>
<g clip-path="url(#clip2_605_5657)">
<path d="M197 133H194C192.939 133 191.922 133.421 191.172 134.172C190.421 134.922 190 135.939 190 137V140C190 141.061 190.421 142.078 191.172 142.828C191.922 143.579 192.939 144 194 144H197C198.061 144 199.078 143.579 199.828 142.828C200.579 142.078 201 141.061 201 140V137C201 135.939 200.579 134.922 199.828 134.172C199.078 133.421 198.061 133 197 133V133ZM199 140C199 140.53 198.789 141.039 198.414 141.414C198.039 141.789 197.53 142 197 142H194C193.47 142 192.961 141.789 192.586 141.414C192.211 141.039 192 140.53 192 140V137C192 136.47 192.211 135.961 192.586 135.586C192.961 135.211 193.47 135 194 135H197C197.53 135 198.039 135.211 198.414 135.586C198.789 135.961 199 136.47 199 137V140Z" fill="#5C5470"/>
<path d="M210 133H207C205.939 133 204.922 133.421 204.171 134.172C203.421 134.922 203 135.939 203 137V140C203 141.061 203.421 142.078 204.171 142.828C204.922 143.579 205.939 144 207 144H210C211.061 144 212.078 143.579 212.828 142.828C213.578 142.078 214 141.061 214 140V137C214 135.939 213.578 134.922 212.828 134.172C212.078 133.421 211.061 133 210 133V133ZM212 140C212 140.53 211.789 141.039 211.414 141.414C211.039 141.789 210.53 142 210 142H207C206.469 142 205.961 141.789 205.586 141.414C205.211 141.039 205 140.53 205 140V137C205 136.47 205.211 135.961 205.586 135.586C205.961 135.211 206.469 135 207 135H210C210.53 135 211.039 135.211 211.414 135.586C211.789 135.961 212 136.47 212 137V140Z" fill="#5C5470"/>
<path d="M197 146H194C192.939 146 191.922 146.421 191.172 147.172C190.421 147.922 190 148.939 190 150V153C190 154.061 190.421 155.078 191.172 155.828C191.922 156.579 192.939 157 194 157H197C198.061 157 199.078 156.579 199.828 155.828C200.579 155.078 201 154.061 201 153V150C201 148.939 200.579 147.922 199.828 147.172C199.078 146.421 198.061 146 197 146V146ZM199 153C199 153.53 198.789 154.039 198.414 154.414C198.039 154.789 197.53 155 197 155H194C193.47 155 192.961 154.789 192.586 154.414C192.211 154.039 192 153.53 192 153V150C192 149.47 192.211 148.961 192.586 148.586C192.961 148.211 193.47 148 194 148H197C197.53 148 198.039 148.211 198.414 148.586C198.789 148.961 199 149.47 199 150V153Z" fill="#5C5470"/>
<path d="M210 146H207C205.939 146 204.922 146.421 204.171 147.172C203.421 147.922 203 148.939 203 150V153C203 154.061 203.421 155.078 204.171 155.828C204.922 156.579 205.939 157 207 157H210C211.061 157 212.078 156.579 212.828 155.828C213.578 155.078 214 154.061 214 153V150C214 148.939 213.578 147.922 212.828 147.172C212.078 146.421 211.061 146 210 146V146ZM212 153C212 153.53 211.789 154.039 211.414 154.414C211.039 154.789 210.53 155 210 155H207C206.469 155 205.961 154.789 205.586 154.414C205.211 154.039 205 153.53 205 153V150C205 149.47 205.211 148.961 205.586 148.586C205.961 148.211 206.469 148 207 148H210C210.53 148 211.039 148.211 211.414 148.586C211.789 148.961 212 149.47 212 150V153Z" fill="#5C5470"/>
</g>
<g clip-path="url(#clip3_605_5657)">
<path d="M207 301H197C195.675 301.002 194.404 301.529 193.466 302.466C192.529 303.404 192.002 304.674 192 306V320C192.002 321.326 192.529 322.596 193.466 323.534C194.404 324.471 195.675 324.998 197 325H207C208.326 324.998 209.597 324.471 210.534 323.534C211.471 322.596 211.999 321.326 212 320V306C211.999 304.674 211.471 303.404 210.534 302.466C209.597 301.529 208.326 301.002 207 301V301ZM197 303H207C207.796 303 208.559 303.316 209.121 303.879C209.684 304.441 210 305.204 210 306V312H194V306C194 305.204 194.316 304.441 194.879 303.879C195.441 303.316 196.204 303 197 303V303ZM207 323H197C196.204 323 195.441 322.684 194.879 322.121C194.316 321.559 194 320.796 194 320V314H210V320C210 320.796 209.684 321.559 209.121 322.121C208.559 322.684 207.796 323 207 323Z" fill="#5C5470"/>
<path d="M201 308H203C203.265 308 203.519 307.895 203.707 307.707C203.894 307.52 204 307.265 204 307C204 306.735 203.894 306.48 203.707 306.293C203.519 306.105 203.265 306 203 306H201C200.735 306 200.48 306.105 200.293 306.293C200.105 306.48 200 306.735 200 307C200 307.265 200.105 307.52 200.293 307.707C200.48 307.895 200.735 308 201 308V308Z" fill="#5C5470"/>
<path d="M203 318H201C200.735 318 200.48 318.105 200.293 318.293C200.105 318.48 200 318.735 200 319C200 319.265 200.105 319.52 200.293 319.707C200.48 319.895 200.735 320 201 320H203C203.265 320 203.519 319.895 203.707 319.707C203.894 319.52 204 319.265 204 319C204 318.735 203.894 318.48 203.707 318.293C203.519 318.105 203.265 318 203 318Z" fill="#5C5470"/>
</g>
<g clip-path="url(#clip4_605_5657)">
<path d="M90 133C87.6266 133 85.3066 133.704 83.3332 135.022C81.3598 136.341 79.8217 138.215 78.9135 140.408C78.0052 142.601 77.7676 145.013 78.2306 147.341C78.6936 149.669 79.8365 151.807 81.5147 153.485C83.193 155.164 85.3312 156.306 87.6589 156.769C89.9867 157.232 92.3995 156.995 94.5922 156.087C96.7849 155.178 98.6591 153.64 99.9776 151.667C101.296 149.693 102 147.373 102 145C101.997 141.818 100.731 138.768 98.4815 136.519C96.2318 134.269 93.1815 133.003 90 133V133ZM90 135C92.3065 134.998 94.5419 135.798 96.324 137.262L82.262 151.324C81.0626 149.86 80.3037 148.085 80.0736 146.206C79.8436 144.328 80.1519 142.422 80.9626 140.712C81.7733 139.002 83.0531 137.557 84.6531 136.546C86.253 135.534 88.1073 134.998 90 135V135ZM90 155C87.6935 155.002 85.4581 154.202 83.676 152.738L97.738 138.676C98.9374 140.14 99.6963 141.915 99.9264 143.794C100.156 145.672 99.8481 147.578 99.0374 149.288C98.2267 150.998 96.9469 152.443 95.3469 153.454C93.747 154.466 91.8927 155.002 90 155Z" fill="#5C5470"/>
</g>
<path d="M208 82.9999C207.812 82.8125 207.558 82.7072 207.293 82.7072C207.028 82.7072 206.774 82.8125 206.586 82.9999L202 87.5859L197.414 82.9999C197.226 82.8125 196.972 82.7072 196.707 82.7072C196.442 82.7072 196.188 82.8125 196 82.9999C195.813 83.1875 195.707 83.4418 195.707 83.7069C195.707 83.9721 195.813 84.2264 196 84.4139L200.586 88.9999L196 93.5859C195.813 93.7735 195.707 94.0278 195.707 94.2929C195.707 94.5581 195.813 94.8124 196 94.9999C196.188 95.1874 196.442 95.2927 196.707 95.2927C196.972 95.2927 197.226 95.1874 197.414 94.9999L202 90.4139L206.586 94.9999C206.774 95.1874 207.028 95.2927 207.293 95.2927C207.558 95.2927 207.812 95.1874 208 94.9999C208.187 94.8124 208.293 94.5581 208.293 94.2929C208.293 94.0278 208.187 93.7735 208 93.5859L203.414 88.9999L208 84.4139C208.187 84.2264 208.293 83.9721 208.293 83.7069C208.293 83.4418 208.187 83.1875 208 82.9999V82.9999Z" fill="#5C5470"/>
<g clip-path="url(#clip5_605_5657)">
<path d="M146 133C143.627 133 141.307 133.704 139.333 135.022C137.36 136.341 135.822 138.215 134.913 140.408C134.005 142.601 133.768 145.013 134.231 147.341C134.694 149.669 135.836 151.807 137.515 153.485C139.193 155.164 141.331 156.306 143.659 156.769C145.987 157.232 148.399 156.995 150.592 156.087C152.785 155.178 154.659 153.64 155.978 151.667C157.296 149.693 158 147.373 158 145C157.997 141.818 156.731 138.768 154.481 136.519C152.232 134.269 149.182 133.003 146 133V133ZM146 155C144.022 155 142.089 154.414 140.444 153.315C138.8 152.216 137.518 150.654 136.761 148.827C136.004 147 135.806 144.989 136.192 143.049C136.578 141.109 137.53 139.327 138.929 137.929C140.327 136.53 142.109 135.578 144.049 135.192C145.989 134.806 148 135.004 149.827 135.761C151.654 136.518 153.216 137.8 154.315 139.444C155.414 141.089 156 143.022 156 145C155.997 147.651 154.943 150.193 153.068 152.068C151.193 153.943 148.651 154.997 146 155V155Z" fill="#5C5470"/>
<path d="M146 138C145.735 138 145.481 138.106 145.293 138.293C145.106 138.481 145 138.735 145 139V147C145 147.265 145.106 147.52 145.293 147.707C145.481 147.895 145.735 148 146 148C146.265 148 146.52 147.895 146.707 147.707C146.895 147.52 147 147.265 147 147V139C147 138.735 146.895 138.481 146.707 138.293C146.52 138.106 146.265 138 146 138Z" fill="#5C5470"/>
<path d="M147 151C147 150.448 146.552 150 146 150C145.448 150 145 150.448 145 151C145 151.553 145.448 152 146 152C146.552 152 147 151.553 147 151Z" fill="#5C5470"/>
</g>
<g clip-path="url(#clip6_605_5657)">
<path d="M34 133C31.6266 133 29.3066 133.704 27.3332 135.022C25.3598 136.341 23.8217 138.215 22.9135 140.408C22.0052 142.601 21.7676 145.013 22.2306 147.341C22.6936 149.669 23.8365 151.807 25.5147 153.485C27.193 155.164 29.3312 156.306 31.6589 156.769C33.9867 157.232 36.3995 156.995 38.5922 156.087C40.7849 155.178 42.6591 153.64 43.9776 151.667C45.2962 149.693 46 147.373 46 145C45.9966 141.818 44.7312 138.768 42.4815 136.519C40.2318 134.269 37.1815 133.003 34 133V133ZM34 155C32.0222 155 30.0888 154.414 28.4443 153.315C26.7998 152.216 25.5181 150.654 24.7612 148.827C24.0043 147 23.8063 144.989 24.1922 143.049C24.578 141.109 25.5304 139.327 26.9289 137.929C28.3275 136.53 30.1093 135.578 32.0491 135.192C33.9889 134.806 35.9996 135.004 37.8268 135.761C39.6541 136.518 41.2159 137.8 42.3147 139.444C43.4135 141.089 44 143.022 44 145C43.9971 147.651 42.9426 150.193 41.0679 152.068C39.1931 153.943 36.6513 154.997 34 155V155ZM39 145C39 145.265 38.8946 145.52 38.7071 145.707C38.5196 145.895 38.2652 146 38 146H35V149C35 149.265 34.8946 149.52 34.7071 149.707C34.5196 149.895 34.2652 150 34 150C33.7348 150 33.4804 149.895 33.2929 149.707C33.1054 149.52 33 149.265 33 149V146H30C29.7348 146 29.4804 145.895 29.2929 145.707C29.1054 145.52 29 145.265 29 145C29 144.735 29.1054 144.48 29.2929 144.293C29.4804 144.105 29.7348 144 30 144H33V141C33 140.735 33.1054 140.48 33.2929 140.293C33.4804 140.105 33.7348 140 34 140C34.2652 140 34.5196 140.105 34.7071 140.293C34.8946 140.48 35 140.735 35 141V144H38C38.2652 144 38.5196 144.105 38.7071 144.293C38.8946 144.48 39 144.735 39 145Z" fill="#5C5470"/>
</g>
<g clip-path="url(#clip7_605_5657)">
<path d="M34 133C31.6266 133 29.3066 133.704 27.3332 135.022C25.3598 136.341 23.8217 138.215 22.9135 140.408C22.0052 142.601 21.7676 145.013 22.2306 147.341C22.6936 149.669 23.8365 151.807 25.5147 153.485C27.193 155.164 29.3312 156.306 31.6589 156.769C33.9867 157.232 36.3995 156.995 38.5922 156.087C40.7849 155.178 42.6591 153.64 43.9776 151.667C45.2962 149.693 46 147.373 46 145C45.9966 141.818 44.7312 138.768 42.4815 136.519C40.2318 134.269 37.1815 133.003 34 133V133ZM34 155C32.0222 155 30.0888 154.414 28.4443 153.315C26.7998 152.216 25.5181 150.654 24.7612 148.827C24.0043 147 23.8063 144.989 24.1922 143.049C24.578 141.109 25.5304 139.327 26.9289 137.929C28.3275 136.53 30.1093 135.578 32.0491 135.192C33.9889 134.806 35.9996 135.004 37.8268 135.761C39.6541 136.518 41.2159 137.8 42.3147 139.444C43.4135 141.089 44 143.022 44 145C43.9971 147.651 42.9426 150.193 41.0679 152.068C39.1931 153.943 36.6513 154.997 34 155V155ZM39 145C39 145.265 38.8946 145.52 38.7071 145.707C38.5196 145.895 38.2652 146 38 146H35V149C35 149.265 34.8946 149.52 34.7071 149.707C34.5196 149.895 34.2652 150 34 150C33.7348 150 33.4804 149.895 33.2929 149.707C33.1054 149.52 33 149.265 33 149V146H30C29.7348 146 29.4804 145.895 29.2929 145.707C29.1054 145.52 29 145.265 29 145C29 144.735 29.1054 144.48 29.2929 144.293C29.4804 144.105 29.7348 144 30 144H33V141C33 140.735 33.1054 140.48 33.2929 140.293C33.4804 140.105 33.7348 140 34 140C34.2652 140 34.5196 140.105 34.7071 140.293C34.8946 140.48 35 140.735 35 141V144H38C38.2652 144 38.5196 144.105 38.7071 144.293C38.8946 144.48 39 144.735 39 145Z" fill="#5C5470"/>
</g>
<path d="M88.48 96.0001C88.2177 95.999 87.9663 95.8948 87.78 95.7101L83.19 91.1201C82.6282 90.5576 82.3127 89.7951 82.3127 89.0001C82.3127 88.2051 82.6282 87.4426 83.19 86.8801L87.78 82.2901C87.9674 82.1038 88.2209 81.9993 88.485 81.9993C88.7492 81.9993 89.0027 82.1038 89.19 82.2901C89.2838 82.383 89.3582 82.4936 89.4089 82.6155C89.4597 82.7373 89.4858 82.868 89.4858 83.0001C89.4858 83.1321 89.4597 83.2628 89.4089 83.3846C89.3582 83.5065 89.2838 83.6171 89.19 83.7101L84.6 88.2901C84.5063 88.383 84.4319 88.4936 84.3812 88.6155C84.3304 88.7373 84.3042 88.868 84.3042 89.0001C84.3042 89.1321 84.3304 89.2628 84.3812 89.3846C84.4319 89.5065 84.5063 89.6171 84.6 89.7101L89.19 94.2901C89.2838 94.383 89.3582 94.4936 89.4089 94.6155C89.4597 94.7373 89.4858 94.868 89.4858 95.0001C89.4858 95.1321 89.4597 95.2628 89.4089 95.3846C89.3582 95.5065 89.2838 95.6171 89.19 95.7101C89.0966 95.8027 88.9858 95.8761 88.864 95.9258C88.7421 95.9756 88.6117 96.0008 88.48 96.0001Z" fill="#5C5470"/>
<path d="M95.4799 96.0001C95.2175 95.999 94.9661 95.8948 94.7799 95.7101L88.7799 89.7101C88.6861 89.6171 88.6117 89.5065 88.561 89.3846C88.5102 89.2628 88.4841 89.1321 88.4841 89.0001C88.4841 88.868 88.5102 88.7373 88.561 88.6155C88.6117 88.4936 88.6861 88.383 88.7799 88.2901L94.7799 82.2901C94.9672 82.1038 95.2207 81.9993 95.4849 81.9993C95.749 81.9993 96.0025 82.1038 96.1899 82.2901C96.2836 82.383 96.358 82.4936 96.4087 82.6155C96.4595 82.7373 96.4857 82.868 96.4857 83.0001C96.4857 83.1321 96.4595 83.2628 96.4087 83.3846C96.358 83.5065 96.2836 83.6171 96.1899 83.7101L90.8999 89.0001L96.1899 94.2901C96.2836 94.383 96.358 94.4936 96.4087 94.6155C96.4595 94.7373 96.4857 94.868 96.4857 95.0001C96.4857 95.1321 96.4595 95.2628 96.4087 95.3846C96.358 95.5065 96.2836 95.6171 96.1899 95.7101C96.0964 95.8027 95.9856 95.8761 95.8638 95.9258C95.7419 95.9756 95.6115 96.0008 95.4799 96.0001Z" fill="#5C5470"/>
<path d="M147.1 96.0001C146.902 95.9992 146.709 95.9398 146.545 95.8292C146.381 95.7187 146.254 95.5619 146.179 95.3789C146.104 95.1959 146.085 94.9947 146.124 94.8009C146.164 94.6071 146.26 94.4293 146.4 94.2901L151 89.7101C151.094 89.6171 151.168 89.5065 151.219 89.3846C151.27 89.2628 151.296 89.1321 151.296 89.0001C151.296 88.868 151.27 88.7373 151.219 88.6155C151.168 88.4936 151.094 88.383 151 88.2901L146.4 83.7101C146.306 83.6171 146.232 83.5065 146.181 83.3846C146.13 83.2628 146.104 83.1321 146.104 83.0001C146.104 82.868 146.13 82.7373 146.181 82.6155C146.232 82.4936 146.306 82.383 146.4 82.2901C146.587 82.1038 146.841 81.9993 147.105 81.9993C147.369 81.9993 147.623 82.1038 147.81 82.2901L152.4 86.8801C152.962 87.4426 153.277 88.2051 153.277 89.0001C153.277 89.7951 152.962 90.5576 152.4 91.1201L147.81 95.7101C147.717 95.8027 147.606 95.8761 147.484 95.9258C147.362 95.9756 147.232 96.0008 147.1 96.0001Z" fill="#5C5470"/>
<path d="M140.1 96.0001C139.902 95.9992 139.709 95.9398 139.545 95.8292C139.381 95.7187 139.254 95.5619 139.179 95.3789C139.104 95.1959 139.085 94.9947 139.124 94.8009C139.164 94.6071 139.26 94.4293 139.4 94.2901L144.69 89.0001L139.4 83.7101C139.306 83.6171 139.232 83.5065 139.181 83.3846C139.13 83.2628 139.104 83.1321 139.104 83.0001C139.104 82.868 139.13 82.7373 139.181 82.6155C139.232 82.4936 139.306 82.383 139.4 82.2901C139.587 82.1038 139.841 81.9993 140.105 81.9993C140.369 81.9993 140.623 82.1038 140.81 82.2901L146.81 88.2901C146.904 88.383 146.978 88.4936 147.029 88.6155C147.08 88.7373 147.106 88.868 147.106 89.0001C147.106 89.1321 147.08 89.2628 147.029 89.3846C146.978 89.5065 146.904 89.6171 146.81 89.7101L140.81 95.7101C140.717 95.8027 140.606 95.8761 140.484 95.9258C140.362 95.9756 140.232 96.0008 140.1 96.0001Z" fill="#5C5470"/>
<path d="M40.7099 29.21C40.6169 29.1163 40.5063 29.0419 40.3845 28.9911C40.2626 28.9403 40.1319 28.9142 39.9999 28.9142C39.8679 28.9142 39.7372 28.9403 39.6153 28.9911C39.4934 29.0419 39.3828 29.1163 39.2899 29.21L34.7099 33.79C34.6169 33.8837 34.5063 33.9581 34.3845 34.0089C34.2626 34.0596 34.1319 34.0858 33.9999 34.0858C33.8679 34.0858 33.7372 34.0596 33.6153 34.0089C33.4934 33.9581 33.3828 33.8837 33.2899 33.79L28.7099 29.21C28.6169 29.1163 28.5063 29.0419 28.3845 28.9911C28.2626 28.9403 28.1319 28.9142 27.9999 28.9142C27.8679 28.9142 27.7372 28.9403 27.6153 28.9911C27.4934 29.0419 27.3828 29.1163 27.2899 29.21C27.1036 29.3973 26.9991 29.6508 26.9991 29.915C26.9991 30.1792 27.1036 30.4326 27.2899 30.62L31.8799 35.21C32.4424 35.7718 33.2049 36.0873 33.9999 36.0873C34.7949 36.0873 35.5574 35.7718 36.1199 35.21L40.7099 30.62C40.8961 30.4326 41.0007 30.1792 41.0007 29.915C41.0007 29.6508 40.8961 29.3973 40.7099 29.21V29.21Z" fill="#5C5470"/>
<path d="M88.5999 33.7101C88.5062 33.6171 88.4318 33.5065 88.381 33.3846C88.3303 33.2628 88.3041 33.1321 88.3041 33.0001C88.3041 32.868 88.3303 32.7373 88.381 32.6155C88.4318 32.4936 88.5062 32.383 88.5999 32.2901L93.1899 27.7101C93.2836 27.6171 93.358 27.5065 93.4088 27.3846C93.4596 27.2628 93.4857 27.1321 93.4857 27.0001C93.4857 26.868 93.4596 26.7373 93.4088 26.6155C93.358 26.4936 93.2836 26.383 93.1899 26.2901C93.0026 26.1038 92.7491 25.9993 92.4849 25.9993C92.2207 25.9993 91.9673 26.1038 91.7799 26.2901L87.1899 30.8801C86.6281 31.4426 86.3126 32.2051 86.3126 33.0001C86.3126 33.7951 86.6281 34.5576 87.1899 35.1201L91.7799 39.7101C91.9662 39.8948 92.2176 39.999 92.4799 40.0001C92.6115 40.0008 92.742 39.9756 92.8638 39.9258C92.9857 39.8761 93.0965 39.8027 93.1899 39.7101C93.2836 39.6171 93.358 39.5065 93.4088 39.3846C93.4596 39.2628 93.4857 39.1321 93.4857 39.0001C93.4857 38.868 93.4596 38.7373 93.4088 38.6155C93.358 38.4936 93.2836 38.383 93.1899 38.2901L88.5999 33.7101Z" fill="#5C5470"/>
<path d="M149.4 30.8801L144.81 26.2901C144.622 26.1038 144.369 25.9993 144.105 25.9993C143.841 25.9993 143.587 26.1038 143.4 26.2901C143.306 26.383 143.232 26.4936 143.181 26.6155C143.13 26.7373 143.104 26.868 143.104 27.0001C143.104 27.1321 143.13 27.2628 143.181 27.3846C143.232 27.5065 143.306 27.6171 143.4 27.7101L148 32.2901C148.094 32.383 148.168 32.4936 148.219 32.6155C148.269 32.7373 148.296 32.868 148.296 33.0001C148.296 33.1321 148.269 33.2628 148.219 33.3846C148.168 33.5065 148.094 33.6171 148 33.7101L143.4 38.2901C143.211 38.477 143.105 38.7312 143.104 38.9965C143.103 39.2619 143.208 39.5168 143.395 39.7051C143.582 39.8934 143.836 39.9997 144.101 40.0006C144.367 40.0016 144.621 39.897 144.81 39.7101L149.4 35.1201C149.962 34.5576 150.277 33.7951 150.277 33.0001C150.277 32.2051 149.962 31.4426 149.4 30.8801V30.8801Z" fill="#5C5470"/>
<path d="M208 36.4999C207.868 36.5007 207.738 36.4755 207.616 36.4257C207.494 36.3759 207.383 36.3026 207.29 36.2099L202.71 31.6199C202.617 31.5262 202.506 31.4518 202.384 31.401C202.263 31.3503 202.132 31.3241 202 31.3241C201.868 31.3241 201.737 31.3503 201.615 31.401C201.493 31.4518 201.383 31.5262 201.29 31.6199L196.71 36.2099C196.522 36.3982 196.266 36.504 196 36.504C195.734 36.504 195.478 36.3982 195.29 36.2099C195.102 36.0216 194.996 35.7662 194.996 35.4999C194.996 35.3681 195.022 35.2375 195.072 35.1157C195.123 34.9939 195.197 34.8832 195.29 34.7899L199.88 30.2099C200.45 29.6624 201.209 29.3566 202 29.3566C202.79 29.3566 203.55 29.6624 204.12 30.2099L208.71 34.7899C208.804 34.8829 208.878 34.9935 208.929 35.1154C208.979 35.2372 209.006 35.3679 209.006 35.4999C209.006 35.6319 208.979 35.7626 208.929 35.8845C208.878 36.0064 208.804 36.117 208.71 36.2099C208.616 36.3026 208.506 36.3759 208.384 36.4257C208.262 36.4755 208.131 36.5007 208 36.4999Z" fill="#5C5470"/>
<g clip-path="url(#clip8_605_5657)">
<path d="M39.2459 307.193C40.2399 306.105 40.85 304.721 40.9829 303.253C41.0215 302.95 40.9903 302.643 40.8917 302.354C40.7931 302.065 40.6297 301.803 40.4141 301.587C40.1985 301.371 39.9364 301.207 39.6478 301.108C39.3591 301.009 39.0517 300.978 38.7489 301.016C37.8385 301.088 36.9544 301.356 36.1575 301.802C35.3606 302.248 34.6699 302.861 34.1329 303.6C33.793 302.749 33.3123 301.962 32.7109 301.271C32.5243 301.086 32.2724 300.982 32.0097 300.981C31.747 300.98 31.4945 301.083 31.3069 301.267C31.1193 301.451 31.0116 301.701 31.0071 301.964C31.0026 302.227 31.1017 302.481 31.2829 302.671C32.2743 303.905 32.8544 305.419 32.9419 307H30.4999C28.1809 307.071 25.9843 308.058 24.3912 309.745C22.7981 311.431 21.9383 313.681 21.9999 316C21.8389 321.6 27.6439 326.773 32.7499 324.385C33.1399 324.137 33.5932 324.007 34.0553 324.01C34.5174 324.014 34.9687 324.15 35.3549 324.404C36.0078 324.781 36.746 324.987 37.4999 325C47.7639 324.716 49.0659 309.582 39.2459 307.193ZM36.2229 304.168C36.9986 303.49 37.9726 303.08 38.9999 303V303C38.918 304.025 38.5089 304.997 37.8329 305.772C37.0566 306.45 36.0824 306.859 35.0549 306.94C35.1362 305.914 35.5458 304.942 36.2229 304.168V304.168ZM37.4999 323C37.0593 322.983 36.6305 322.852 36.2559 322.619C35.5695 322.223 34.7926 322.009 33.9999 322C33.2495 322.017 32.5151 322.221 31.8629 322.593C28.0049 324.261 23.8999 320.141 23.9999 316C23.9383 314.211 24.5874 312.47 25.8055 311.159C27.0235 309.847 28.7113 309.071 30.4999 309H37.4999C46.0999 309.321 46.0999 322.682 37.4999 323Z" fill="#5C5470"/>
</g>
<g clip-path="url(#clip9_605_5657)">
<path d="M197 133H194C192.939 133 191.922 133.421 191.172 134.172C190.421 134.922 190 135.939 190 137V140C190 141.061 190.421 142.078 191.172 142.828C191.922 143.579 192.939 144 194 144H197C198.061 144 199.078 143.579 199.828 142.828C200.579 142.078 201 141.061 201 140V137C201 135.939 200.579 134.922 199.828 134.172C199.078 133.421 198.061 133 197 133V133ZM199 140C199 140.53 198.789 141.039 198.414 141.414C198.039 141.789 197.53 142 197 142H194C193.47 142 192.961 141.789 192.586 141.414C192.211 141.039 192 140.53 192 140V137C192 136.47 192.211 135.961 192.586 135.586C192.961 135.211 193.47 135 194 135H197C197.53 135 198.039 135.211 198.414 135.586C198.789 135.961 199 136.47 199 137V140Z" fill="#5C5470"/>
<path d="M210 133H207C205.939 133 204.922 133.421 204.171 134.172C203.421 134.922 203 135.939 203 137V140C203 141.061 203.421 142.078 204.171 142.828C204.922 143.579 205.939 144 207 144H210C211.061 144 212.078 143.579 212.828 142.828C213.578 142.078 214 141.061 214 140V137C214 135.939 213.578 134.922 212.828 134.172C212.078 133.421 211.061 133 210 133V133ZM212 140C212 140.53 211.789 141.039 211.414 141.414C211.039 141.789 210.53 142 210 142H207C206.469 142 205.961 141.789 205.586 141.414C205.211 141.039 205 140.53 205 140V137C205 136.47 205.211 135.961 205.586 135.586C205.961 135.211 206.469 135 207 135H210C210.53 135 211.039 135.211 211.414 135.586C211.789 135.961 212 136.47 212 137V140Z" fill="#5C5470"/>
<path d="M197 146H194C192.939 146 191.922 146.421 191.172 147.172C190.421 147.922 190 148.939 190 150V153C190 154.061 190.421 155.078 191.172 155.828C191.922 156.579 192.939 157 194 157H197C198.061 157 199.078 156.579 199.828 155.828C200.579 155.078 201 154.061 201 153V150C201 148.939 200.579 147.922 199.828 147.172C199.078 146.421 198.061 146 197 146V146ZM199 153C199 153.53 198.789 154.039 198.414 154.414C198.039 154.789 197.53 155 197 155H194C193.47 155 192.961 154.789 192.586 154.414C192.211 154.039 192 153.53 192 153V150C192 149.47 192.211 148.961 192.586 148.586C192.961 148.211 193.47 148 194 148H197C197.53 148 198.039 148.211 198.414 148.586C198.789 148.961 199 149.47 199 150V153Z" fill="#5C5470"/>
<path d="M210 146H207C205.939 146 204.922 146.421 204.171 147.172C203.421 147.922 203 148.939 203 150V153C203 154.061 203.421 155.078 204.171 155.828C204.922 156.579 205.939 157 207 157H210C211.061 157 212.078 156.579 212.828 155.828C213.578 155.078 214 154.061 214 153V150C214 148.939 213.578 147.922 212.828 147.172C212.078 146.421 211.061 146 210 146V146ZM212 153C212 153.53 211.789 154.039 211.414 154.414C211.039 154.789 210.53 155 210 155H207C206.469 155 205.961 154.789 205.586 154.414C205.211 154.039 205 153.53 205 153V150C205 149.47 205.211 148.961 205.586 148.586C205.961 148.211 206.469 148 207 148H210C210.53 148 211.039 148.211 211.414 148.586C211.789 148.961 212 149.47 212 150V153Z" fill="#5C5470"/>
</g>
<g clip-path="url(#clip10_605_5657)">
<path d="M207 301H197C195.675 301.002 194.404 301.529 193.466 302.466C192.529 303.404 192.002 304.674 192 306V320C192.002 321.326 192.529 322.596 193.466 323.534C194.404 324.471 195.675 324.998 197 325H207C208.326 324.998 209.597 324.471 210.534 323.534C211.471 322.596 211.999 321.326 212 320V306C211.999 304.674 211.471 303.404 210.534 302.466C209.597 301.529 208.326 301.002 207 301V301ZM197 303H207C207.796 303 208.559 303.316 209.121 303.879C209.684 304.441 210 305.204 210 306V312H194V306C194 305.204 194.316 304.441 194.879 303.879C195.441 303.316 196.204 303 197 303V303ZM207 323H197C196.204 323 195.441 322.684 194.879 322.121C194.316 321.559 194 320.796 194 320V314H210V320C210 320.796 209.684 321.559 209.121 322.121C208.559 322.684 207.796 323 207 323Z" fill="#5C5470"/>
<path d="M201 308H203C203.265 308 203.519 307.895 203.707 307.707C203.894 307.52 204 307.265 204 307C204 306.735 203.894 306.48 203.707 306.293C203.519 306.105 203.265 306 203 306H201C200.735 306 200.48 306.105 200.293 306.293C200.105 306.48 200 306.735 200 307C200 307.265 200.105 307.52 200.293 307.707C200.48 307.895 200.735 308 201 308V308Z" fill="#5C5470"/>
<path d="M203 318H201C200.735 318 200.48 318.105 200.293 318.293C200.105 318.48 200 318.735 200 319C200 319.265 200.105 319.52 200.293 319.707C200.48 319.895 200.735 320 201 320H203C203.265 320 203.519 319.895 203.707 319.707C203.894 319.52 204 319.265 204 319C204 318.735 203.894 318.48 203.707 318.293C203.519 318.105 203.265 318 203 318Z" fill="#5C5470"/>
</g>
<g clip-path="url(#clip11_605_5657)">
<path d="M154.537 313.7L153.407 313L154.538 312.3C155.323 311.833 155.931 311.119 156.267 310.269C156.477 309.707 156.555 309.105 156.496 308.508C156.436 307.911 156.24 307.336 155.924 306.826C155.607 306.317 155.177 305.887 154.668 305.57C154.159 305.253 153.584 305.057 152.987 304.997C152.076 304.923 151.167 305.153 150.401 305.651L150 305.9V305.172C150.017 304.157 149.658 303.171 148.992 302.405C148.326 301.638 147.4 301.145 146.393 301.019C145.837 300.964 145.276 301.026 144.746 301.201C144.215 301.377 143.728 301.661 143.314 302.036C142.9 302.411 142.569 302.868 142.343 303.379C142.117 303.889 142 304.442 142 305V305.9L141.6 305.65C140.834 305.15 139.924 304.919 139.013 304.993C138.416 305.052 137.84 305.248 137.331 305.565C136.822 305.882 136.392 306.311 136.074 306.82C135.757 307.329 135.561 307.905 135.501 308.502C135.442 309.098 135.52 309.701 135.73 310.263C136.065 311.113 136.674 311.828 137.46 312.294L138.593 313L137.462 313.7C136.676 314.167 136.068 314.881 135.733 315.731C135.522 316.293 135.444 316.897 135.504 317.494C135.564 318.091 135.76 318.667 136.077 319.176C136.395 319.686 136.825 320.116 137.335 320.432C137.845 320.749 138.421 320.944 139.019 321.003C139.927 321.077 140.835 320.848 141.6 320.352L142 320.1V321C142 322.061 142.421 323.078 143.171 323.829C143.921 324.579 144.939 325 146 325C147.061 325 148.078 324.579 148.828 323.829C149.578 323.078 150 322.061 150 321V320.1L150.4 320.351C151.164 320.848 152.071 321.077 152.98 321.004C153.577 320.945 154.153 320.75 154.663 320.433C155.172 320.116 155.602 319.686 155.92 319.177C156.237 318.667 156.433 318.092 156.493 317.494C156.552 316.897 156.474 316.294 156.264 315.732C155.929 314.882 155.321 314.168 154.537 313.7V313.7ZM154.226 318.118C153.957 318.549 153.528 318.856 153.033 318.971C152.538 319.086 152.018 319 151.587 318.731L149.528 317.449C149.376 317.355 149.202 317.303 149.024 317.299C148.845 317.294 148.669 317.338 148.513 317.425C148.357 317.512 148.227 317.639 148.137 317.792C148.047 317.946 147.999 318.122 148 318.3V321C148 321.531 147.789 322.039 147.414 322.414C147.039 322.789 146.53 323 146 323C145.469 323 144.961 322.789 144.586 322.414C144.21 322.039 144 321.531 144 321V318.3C144 318.122 143.952 317.947 143.862 317.793C143.771 317.639 143.641 317.513 143.485 317.426C143.33 317.34 143.153 317.296 142.975 317.301C142.797 317.305 142.623 317.357 142.472 317.451L140.413 318.735C140.199 318.868 139.962 318.958 139.713 318.999C139.465 319.04 139.211 319.032 138.966 318.975C138.721 318.918 138.49 318.813 138.286 318.667C138.081 318.52 137.907 318.335 137.774 318.122C137.641 317.908 137.552 317.67 137.511 317.422C137.469 317.174 137.478 316.92 137.535 316.675C137.592 316.43 137.696 316.199 137.843 315.994C137.989 315.79 138.174 315.616 138.388 315.483L141.013 313.849C141.157 313.759 141.277 313.634 141.36 313.486C141.443 313.337 141.486 313.169 141.486 312.999C141.486 312.829 141.443 312.661 141.36 312.513C141.277 312.364 141.157 312.239 141.013 312.149L138.388 310.516C137.957 310.248 137.65 309.819 137.535 309.324C137.42 308.829 137.506 308.309 137.774 307.878C138.043 307.446 138.472 307.139 138.966 307.024C139.461 306.909 139.982 306.996 140.413 307.264L142.472 308.546C142.623 308.64 142.797 308.692 142.974 308.697C143.152 308.701 143.328 308.658 143.484 308.572C143.64 308.485 143.77 308.359 143.86 308.206C143.951 308.053 143.999 307.878 144 307.7V305.107C143.989 304.62 144.15 304.145 144.454 303.765C144.758 303.385 145.186 303.123 145.664 303.027C145.951 302.978 146.245 302.993 146.526 303.069C146.807 303.146 147.068 303.283 147.29 303.471C147.513 303.659 147.691 303.893 147.814 304.157C147.937 304.421 148 304.709 148 305V307.7C148 307.878 148.048 308.053 148.138 308.207C148.229 308.36 148.359 308.487 148.515 308.573C148.67 308.66 148.846 308.703 149.025 308.699C149.203 308.694 149.376 308.642 149.528 308.548L151.587 307.267C151.8 307.134 152.038 307.045 152.286 307.003C152.534 306.962 152.788 306.97 153.033 307.027C153.278 307.084 153.509 307.189 153.714 307.335C153.919 307.482 154.092 307.667 154.225 307.881C154.358 308.094 154.448 308.332 154.489 308.58C154.53 308.828 154.522 309.082 154.465 309.327C154.408 309.572 154.303 309.803 154.157 310.008C154.011 310.212 153.825 310.386 153.612 310.519L150.987 312.153C150.842 312.243 150.723 312.368 150.64 312.517C150.557 312.665 150.514 312.833 150.514 313.003C150.514 313.173 150.557 313.341 150.64 313.49C150.723 313.638 150.842 313.763 150.987 313.853L153.612 315.487C153.825 315.62 154.011 315.793 154.157 315.998C154.304 316.202 154.409 316.434 154.466 316.679C154.523 316.924 154.531 317.178 154.49 317.426C154.448 317.674 154.359 317.912 154.226 318.125V318.118Z" fill="#5C5470"/>
</g>
<g clip-path="url(#clip12_605_5657)">
<path d="M90 133C87.6266 133 85.3066 133.704 83.3332 135.022C81.3598 136.341 79.8217 138.215 78.9135 140.408C78.0052 142.601 77.7676 145.013 78.2306 147.341C78.6936 149.669 79.8365 151.807 81.5147 153.485C83.193 155.164 85.3312 156.306 87.6589 156.769C89.9867 157.232 92.3995 156.995 94.5922 156.087C96.7849 155.178 98.6591 153.64 99.9776 151.667C101.296 149.693 102 147.373 102 145C101.997 141.818 100.731 138.768 98.4815 136.519C96.2318 134.269 93.1815 133.003 90 133V133ZM90 135C92.3065 134.998 94.5419 135.798 96.324 137.262L82.262 151.324C81.0626 149.86 80.3037 148.085 80.0736 146.206C79.8436 144.328 80.1519 142.422 80.9626 140.712C81.7733 139.002 83.0531 137.557 84.6531 136.546C86.253 135.534 88.1073 134.998 90 135V135ZM90 155C87.6935 155.002 85.4581 154.202 83.676 152.738L97.738 138.676C98.9374 140.14 99.6963 141.915 99.9264 143.794C100.156 145.672 99.8481 147.578 99.0374 149.288C98.2267 150.998 96.9469 152.443 95.3469 153.454C93.747 154.466 91.8927 155.002 90 155Z" fill="#5C5470"/>
</g>
<g clip-path="url(#clip13_605_5657)">
<path d="M101 306H98.4139L100.707 303.707C100.889 303.518 100.99 303.266 100.988 303.004C100.985 302.741 100.88 302.491 100.695 302.305C100.509 302.12 100.258 302.015 99.9963 302.012C99.7341 302.01 99.4815 302.111 99.2929 302.293L96.9999 304.586V302C96.9999 301.735 96.8945 301.48 96.707 301.293C96.5194 301.105 96.2651 301 95.9999 301C95.7346 301 95.4803 301.105 95.2927 301.293C95.1052 301.48 94.9999 301.735 94.9999 302V306.456C94.1813 305.585 93.2151 304.865 92.1459 304.33C91.3951 303.999 90.5568 303.922 89.7584 304.111C88.9599 304.3 88.2452 304.745 87.7229 305.378C85.9649 307.136 81.0649 316.121 78.2999 321.319C78.0568 321.792 77.9702 322.33 78.0525 322.855C78.1348 323.38 78.3817 323.866 78.7577 324.242C79.1337 324.618 79.6194 324.865 80.1447 324.947C80.67 325.03 81.2079 324.943 81.6809 324.7C86.8809 321.936 95.8639 317.035 97.6219 315.277C98.2544 314.755 98.6992 314.04 98.8886 313.242C99.0779 312.444 99.0015 311.606 98.6709 310.855C98.1353 309.786 97.4153 308.819 96.5439 308H101C101.265 308 101.519 307.895 101.707 307.707C101.894 307.52 102 307.265 102 307C102 306.735 101.894 306.48 101.707 306.293C101.519 306.105 101.265 306 101 306ZM96.2079 313.863C95.4929 314.475 94.7256 315.023 93.9149 315.5L91.7069 313.293C91.5183 313.111 91.2656 313.01 91.0035 313.012C90.7413 313.015 90.4904 313.12 90.305 313.305C90.1196 313.491 90.0145 313.741 90.0122 314.004C90.0099 314.266 90.1107 314.518 90.2929 314.707L92.1629 316.576C89.4169 318.219 85.4739 320.418 80.7419 322.934C80.6473 322.984 80.5392 323.003 80.4334 322.987C80.3276 322.971 80.2297 322.921 80.154 322.846C80.0784 322.77 80.029 322.672 80.0131 322.566C79.9972 322.461 80.0157 322.353 80.0659 322.258C81.5879 319.397 82.9889 316.834 84.2259 314.64L86.2929 316.707C86.4815 316.889 86.7341 316.99 86.9963 316.988C87.2585 316.985 87.5093 316.88 87.6947 316.695C87.8801 316.509 87.9852 316.259 87.9875 315.996C87.9898 315.734 87.889 315.482 87.7069 315.293L85.2509 312.837C86.3409 310.948 87.2569 309.437 87.9599 308.374L90.2929 310.707C90.4815 310.889 90.7341 310.99 90.9963 310.988C91.2585 310.985 91.5093 310.88 91.6947 310.695C91.8801 310.509 91.9852 310.259 91.9875 309.996C91.9898 309.734 91.889 309.482 91.7069 309.293L89.1739 306.76C90.0209 305.971 90.5399 305.838 91.3569 306.168C92.4909 306.815 93.5078 307.649 94.3649 308.634C95.3504 309.491 96.1844 310.509 96.8319 311.643C97.0809 312.223 97.1779 312.894 96.2079 313.863Z" fill="#5C5470"/>
</g>
<path d="M40 83.9999C39.8124 83.8125 39.5581 83.7072 39.293 83.7072C39.0278 83.7072 38.7735 83.8125 38.586 83.9999L34 88.5859L29.414 83.9999C29.2264 83.8125 28.9721 83.7072 28.707 83.7072C28.4418 83.7072 28.1875 83.8125 28 83.9999C27.8125 84.1875 27.7072 84.4418 27.7072 84.7069C27.7072 84.9721 27.8125 85.2264 28 85.4139L32.586 89.9999L28 94.5859C27.8125 94.7735 27.7072 95.0278 27.7072 95.2929C27.7072 95.5581 27.8125 95.8124 28 95.9999C28.1875 96.1874 28.4418 96.2927 28.707 96.2927C28.9721 96.2927 29.2264 96.1874 29.414 95.9999L34 91.4139L38.586 95.9999C38.7735 96.1874 39.0278 96.2927 39.293 96.2927C39.5581 96.2927 39.8124 96.1874 40 95.9999C40.1874 95.8124 40.2928 95.5581 40.2928 95.2929C40.2928 95.0278 40.1874 94.7735 40 94.5859L35.414 89.9999L40 85.4139C40.1874 85.2264 40.2928 84.9721 40.2928 84.7069C40.2928 84.4418 40.1874 84.1875 40 83.9999V83.9999Z" fill="#5C5470"/>
<g clip-path="url(#clip14_605_5657)">
<path d="M31.8782 207.122C32.1568 207.401 32.4876 207.622 32.8517 207.773C33.2158 207.924 33.6061 208.001 34.0002 208.001C34.3943 208.001 34.7846 207.924 35.1487 207.773C35.5128 207.622 35.8436 207.401 36.1222 207.122L39.3332 203.911C39.5054 203.721 39.5977 203.471 39.5911 203.215C39.5845 202.958 39.4795 202.714 39.2978 202.532C39.1161 202.351 38.8716 202.247 38.615 202.241C38.3584 202.235 38.1092 202.327 37.9192 202.5L34.9932 205.427L35.0002 190C35.0002 189.735 34.8948 189.48 34.7073 189.293C34.5198 189.105 34.2654 189 34.0002 189V189C33.735 189 33.4806 189.105 33.2931 189.293C33.1056 189.48 33.0002 189.735 33.0002 190L32.9912 205.408L30.0812 202.5C29.8936 202.312 29.6391 202.207 29.3738 202.207C29.1086 202.207 28.8542 202.313 28.6667 202.501C28.4792 202.688 28.3739 202.943 28.374 203.208C28.3741 203.473 28.4796 203.727 28.6672 203.915L31.8782 207.122Z" fill="#5C5470"/>
<path d="M45 205C44.7348 205 44.4804 205.105 44.2929 205.293C44.1054 205.48 44 205.735 44 206V210C44 210.265 43.8946 210.519 43.7071 210.707C43.5196 210.894 43.2652 211 43 211H25C24.7348 211 24.4804 210.894 24.2929 210.707C24.1054 210.519 24 210.265 24 210V206C24 205.735 23.8946 205.48 23.7071 205.293C23.5196 205.105 23.2652 205 23 205V205C22.7348 205 22.4804 205.105 22.2929 205.293C22.1054 205.48 22 205.735 22 206V210C22 210.795 22.3161 211.558 22.8787 212.121C23.4413 212.684 24.2044 213 25 213H43C43.7956 213 44.5587 212.684 45.1213 212.121C45.6839 211.558 46 210.795 46 210V206C46 205.735 45.8946 205.48 45.7071 205.293C45.5196 205.105 45.2652 205 45 205Z" fill="#5C5470"/>
</g>
<g clip-path="url(#clip15_605_5657)">
<path d="M211.155 192.272L208.871 189.913C208.59 189.625 208.255 189.396 207.885 189.239C207.515 189.082 207.117 189.001 206.715 189H202C200.848 189.001 199.731 189.4 198.839 190.129C197.946 190.857 197.332 191.871 197.1 193H197C195.674 193.002 194.403 193.529 193.466 194.466C192.529 195.404 192.002 196.674 192 198V208C192.002 209.326 192.529 210.596 193.466 211.534C194.403 212.471 195.674 212.998 197 213H203C204.326 212.998 205.596 212.471 206.534 211.534C207.471 210.596 207.998 209.326 208 208V207.9C209.129 207.668 210.143 207.054 210.871 206.161C211.6 205.269 211.998 204.152 212 203V194.36C212.001 193.58 211.698 192.831 211.155 192.272V192.272ZM203 211H197C196.204 211 195.441 210.684 194.879 210.121C194.316 209.559 194 208.796 194 208V198C194 197.204 194.316 196.441 194.879 195.879C195.441 195.316 196.204 195 197 195V203C197.002 204.326 197.529 205.596 198.466 206.534C199.403 207.471 200.674 207.998 202 208H206C206 208.796 205.684 209.559 205.121 210.121C204.559 210.684 203.796 211 203 211ZM207 206H202C201.204 206 200.441 205.684 199.879 205.121C199.316 204.559 199 203.796 199 203V194C199 193.204 199.316 192.441 199.879 191.879C200.441 191.316 201.204 191 202 191H206V193C206 193.53 206.211 194.039 206.586 194.414C206.961 194.789 207.47 195 208 195H210V203C210 203.796 209.684 204.559 209.121 205.121C208.559 205.684 207.796 206 207 206V206Z" fill="#5C5470"/>
</g>
<g clip-path="url(#clip16_605_5657)">
<path d="M146 133C143.627 133 141.307 133.704 139.333 135.022C137.36 136.341 135.822 138.215 134.913 140.408C134.005 142.601 133.768 145.013 134.231 147.341C134.694 149.669 135.836 151.807 137.515 153.485C139.193 155.164 141.331 156.306 143.659 156.769C145.987 157.232 148.399 156.995 150.592 156.087C152.785 155.178 154.659 153.64 155.978 151.667C157.296 149.693 158 147.373 158 145C157.997 141.818 156.731 138.768 154.481 136.519C152.232 134.269 149.182 133.003 146 133V133ZM146 155C144.022 155 142.089 154.414 140.444 153.315C138.8 152.216 137.518 150.654 136.761 148.827C136.004 147 135.806 144.989 136.192 143.049C136.578 141.109 137.53 139.327 138.929 137.929C140.327 136.53 142.109 135.578 144.049 135.192C145.989 134.806 148 135.004 149.827 135.761C151.654 136.518 153.216 137.8 154.315 139.444C155.414 141.089 156 143.022 156 145C155.997 147.651 154.943 150.193 153.068 152.068C151.193 153.943 148.651 154.997 146 155V155Z" fill="#5C5470"/>
<path d="M146 138C145.735 138 145.481 138.106 145.293 138.293C145.106 138.481 145 138.735 145 139V147C145 147.265 145.106 147.52 145.293 147.707C145.481 147.895 145.735 148 146 148C146.265 148 146.52 147.895 146.707 147.707C146.895 147.52 147 147.265 147 147V139C147 138.735 146.895 138.481 146.707 138.293C146.52 138.106 146.265 138 146 138Z" fill="#5C5470"/>
<path d="M147 151C147 150.448 146.552 150 146 150C145.448 150 145 150.448 145 151C145 151.553 145.448 152 146 152C146.552 152 147 151.553 147 151Z" fill="#5C5470"/>
</g>
<g clip-path="url(#clip17_605_5657)">
<path d="M209 242H195C193.674 242.002 192.404 242.529 191.466 243.466C190.529 244.404 190.002 245.674 190 247V261C190.002 262.326 190.529 263.596 191.466 264.534C192.404 265.471 193.674 265.998 195 266H209C210.326 265.998 211.596 265.471 212.534 264.534C213.471 263.596 213.998 262.326 214 261V247C213.998 245.674 213.471 244.404 212.534 243.466C211.596 242.529 210.326 242.002 209 242V242ZM197 264V263C197 261.674 197.527 260.402 198.464 259.464C199.402 258.527 200.674 258 202 258C203.326 258 204.598 258.527 205.536 259.464C206.473 260.402 207 261.674 207 263V264H197ZM212 261C212 261.796 211.684 262.559 211.121 263.121C210.559 263.684 209.796 264 209 264V263C209 261.143 208.263 259.363 206.95 258.05C205.637 256.737 203.857 256 202 256C200.143 256 198.363 256.737 197.05 258.05C195.737 259.363 195 261.143 195 263V264C194.204 264 193.441 263.684 192.879 263.121C192.316 262.559 192 261.796 192 261V247C192 246.204 192.316 245.441 192.879 244.879C193.441 244.316 194.204 244 195 244H209C209.796 244 210.559 244.316 211.121 244.879C211.684 245.441 212 246.204 212 247V261Z" fill="#5C5470"/>
<path d="M202 246C201.209 246 200.436 246.235 199.778 246.674C199.12 247.114 198.607 247.739 198.305 248.47C198.002 249.2 197.923 250.005 198.077 250.781C198.231 251.557 198.612 252.269 199.172 252.829C199.731 253.388 200.444 253.769 201.22 253.923C201.996 254.078 202.8 253.999 203.531 253.696C204.262 253.393 204.886 252.88 205.326 252.223C205.766 251.565 206 250.791 206 250C206 248.939 205.579 247.922 204.829 247.172C204.078 246.422 203.061 246 202 246ZM202 252C201.605 252 201.218 251.883 200.889 251.663C200.56 251.443 200.304 251.131 200.152 250.766C200.001 250.4 199.961 249.998 200.039 249.61C200.116 249.222 200.306 248.866 200.586 248.586C200.866 248.306 201.222 248.116 201.61 248.039C201.998 247.962 202.4 248.001 202.765 248.152C203.131 248.304 203.443 248.56 203.663 248.889C203.883 249.218 204 249.605 204 250C204 250.531 203.789 251.039 203.414 251.414C203.039 251.79 202.531 252 202 252Z" fill="#5C5470"/>
</g>
<g clip-path="url(#clip18_605_5657)">
<path d="M97 246H83C81.6744 246.001 80.4036 246.529 79.4662 247.466C78.5289 248.403 78.0016 249.674 78 251V263C78.0016 264.325 78.5289 265.596 79.4662 266.534C80.4036 267.471 81.6744 267.998 83 268H97C98.3256 267.998 99.5964 267.471 100.534 266.534C101.471 265.596 101.998 264.325 102 263V251C101.998 249.674 101.471 248.403 100.534 247.466C99.5964 246.529 98.3256 246.001 97 246V246ZM83 248H97C97.5988 248.001 98.1835 248.181 98.679 248.518C99.1744 248.854 99.5579 249.331 99.78 249.887L92.122 257.546C91.5584 258.107 90.7954 258.422 90 258.422C89.2046 258.422 88.4416 258.107 87.878 257.546L80.22 249.887C80.4421 249.331 80.8256 248.854 81.321 248.518C81.8165 248.181 82.4012 248.001 83 248V248ZM97 266H83C82.2044 266 81.4413 265.684 80.8787 265.121C80.3161 264.558 80 263.795 80 263V252.5L86.464 258.96C87.4026 259.896 88.6743 260.422 90 260.422C91.3257 260.422 92.5974 259.896 93.536 258.96L100 252.5V263C100 263.795 99.6839 264.558 99.1213 265.121C98.5587 265.684 97.7956 266 97 266Z" fill="#5C5470"/>
</g>
<g clip-path="url(#clip19_605_5657)">
<path d="M42 242C40.9391 242 39.9217 242.421 39.1716 243.172C38.4214 243.922 38 244.939 38 246C38 246.265 38.1054 246.52 38.2929 246.707C38.4804 246.895 38.7348 247 39 247C39.2652 247 39.5196 246.895 39.7071 246.707C39.8946 246.52 40 246.265 40 246C40 245.47 40.2107 244.961 40.5858 244.586C40.9609 244.211 41.4696 244 42 244C42.5304 244 43.0391 244.211 43.4142 244.586C43.7893 244.961 44 245.47 44 246V257.026C43.1396 256.364 42.0855 256.004 41 256C40.1812 256 39.375 256.202 38.6523 256.587C37.9295 256.971 37.3124 257.528 36.855 258.207C36.484 257.825 36.0402 257.521 35.5498 257.314C35.0594 257.107 34.5324 257 34 257C33.4676 257 32.9406 257.107 32.4502 257.314C31.9598 257.521 31.516 257.825 31.145 258.207C30.6876 257.528 30.0704 256.971 29.3477 256.587C28.625 256.202 27.8188 256 27 256C25.9145 256.004 24.8604 256.364 24 257.026V246C24 245.47 24.2107 244.961 24.5858 244.586C24.9609 244.211 25.4696 244 26 244C26.5304 244 27.0391 244.211 27.4142 244.586C27.7893 244.961 28 245.47 28 246C28 246.265 28.1054 246.52 28.2929 246.707C28.4804 246.895 28.7348 247 29 247C29.2652 247 29.5196 246.895 29.7071 246.707C29.8946 246.52 30 246.265 30 246C30 244.939 29.5786 243.922 28.8284 243.172C28.0783 242.421 27.0609 242 26 242C24.9391 242 23.9217 242.421 23.1716 243.172C22.4214 243.922 22 244.939 22 246V261C22 262.326 22.5268 263.598 23.4645 264.536C24.4021 265.473 25.6739 266 27 266C28.3261 266 29.5979 265.473 30.5355 264.536C31.4732 263.598 32 262.326 32 261C32 260.47 32.2107 259.961 32.5858 259.586C32.9609 259.211 33.4696 259 34 259C34.5304 259 35.0391 259.211 35.4142 259.586C35.7893 259.961 36 260.47 36 261C36 262.326 36.5268 263.598 37.4645 264.536C38.4021 265.473 39.6739 266 41 266C42.3261 266 43.5979 265.473 44.5355 264.536C45.4732 263.598 46 262.326 46 261V246C46 244.939 45.5786 243.922 44.8284 243.172C44.0783 242.421 43.0609 242 42 242V242ZM27 264C26.4067 264 25.8266 263.824 25.3333 263.494C24.8399 263.165 24.4554 262.696 24.2284 262.148C24.0013 261.6 23.9419 260.997 24.0576 260.415C24.1734 259.833 24.4591 259.298 24.8787 258.879C25.2982 258.459 25.8328 258.173 26.4147 258.058C26.9967 257.942 27.5999 258.001 28.1481 258.228C28.6962 258.455 29.1648 258.84 29.4944 259.333C29.8241 259.827 30 260.407 30 261C30 261.796 29.6839 262.559 29.1213 263.121C28.5587 263.684 27.7956 264 27 264ZM41 264C40.4067 264 39.8266 263.824 39.3333 263.494C38.8399 263.165 38.4554 262.696 38.2284 262.148C38.0013 261.6 37.9419 260.997 38.0576 260.415C38.1734 259.833 38.4591 259.298 38.8787 258.879C39.2982 258.459 39.8328 258.173 40.4147 258.058C40.9967 257.942 41.5999 258.001 42.1481 258.228C42.6962 258.455 43.1648 258.84 43.4944 259.333C43.8241 259.827 44 260.407 44 261C44 261.796 43.6839 262.559 43.1213 263.121C42.5587 263.684 41.7956 264 41 264Z" fill="#5C5470"/>
</g>
<g clip-path="url(#clip20_605_5657)">
<path d="M146 254C147.187 254 148.347 253.648 149.333 252.989C150.32 252.33 151.089 251.392 151.543 250.296C151.997 249.2 152.116 247.993 151.885 246.829C151.653 245.666 151.082 244.596 150.243 243.757C149.404 242.918 148.334 242.347 147.171 242.115C146.007 241.884 144.8 242.003 143.704 242.457C142.608 242.911 141.67 243.68 141.011 244.667C140.352 245.653 140 246.813 140 248C140.002 249.591 140.634 251.116 141.759 252.241C142.884 253.366 144.409 253.998 146 254ZM146 244C146.791 244 147.564 244.235 148.222 244.674C148.88 245.114 149.393 245.738 149.696 246.469C149.998 247.2 150.077 248.004 149.923 248.78C149.769 249.556 149.388 250.269 148.828 250.828C148.269 251.388 147.556 251.769 146.78 251.923C146.004 252.077 145.2 251.998 144.469 251.696C143.738 251.393 143.114 250.88 142.674 250.222C142.235 249.564 142 248.791 142 248C142 246.939 142.421 245.922 143.172 245.172C143.922 244.421 144.939 244 146 244V244Z" fill="#5C5470"/>
<path d="M146 256C143.614 256.003 141.326 256.952 139.639 258.639C137.952 260.327 137.003 262.614 137 265C137 265.266 137.105 265.52 137.293 265.708C137.48 265.895 137.735 266 138 266C138.265 266 138.52 265.895 138.707 265.708C138.895 265.52 139 265.266 139 265C139 263.144 139.737 261.363 141.05 260.051C142.363 258.738 144.143 258 146 258C147.857 258 149.637 258.738 150.95 260.051C152.263 261.363 153 263.144 153 265C153 265.266 153.105 265.52 153.293 265.708C153.48 265.895 153.735 266 154 266C154.265 266 154.52 265.895 154.707 265.708C154.895 265.52 155 265.266 155 265C154.997 262.614 154.048 260.327 152.361 258.639C150.674 256.952 148.386 256.003 146 256V256Z" fill="#5C5470"/>
</g>
<g clip-path="url(#clip21_605_5657)">
<path d="M96.0001 213H84.0001C82.6745 212.998 81.4036 212.471 80.4663 211.534C79.5289 210.596 79.0016 209.326 79.0001 208V194C79.0016 192.674 79.5289 191.404 80.4663 190.466C81.4036 189.529 82.6745 189.002 84.0001 189H96.0001C97.3257 189.002 98.5965 189.529 99.5338 190.466C100.471 191.404 100.998 192.674 101 194V208C100.998 209.326 100.471 210.596 99.5338 211.534C98.5965 212.471 97.3257 212.998 96.0001 213V213ZM84.0001 191C83.2044 191 82.4413 191.316 81.8787 191.879C81.3161 192.441 81.0001 193.204 81.0001 194V208C81.0001 208.796 81.3161 209.559 81.8787 210.121C82.4413 210.684 83.2044 211 84.0001 211H96.0001C96.7957 211 97.5588 210.684 98.1214 210.121C98.684 209.559 99.0001 208.796 99.0001 208V194C99.0001 193.204 98.684 192.441 98.1214 191.879C97.5588 191.316 96.7957 191 96.0001 191H84.0001ZM94.0001 199H86.0001C85.2044 199 84.4413 198.684 83.8787 198.121C83.3161 197.559 83.0001 196.796 83.0001 196C83.0001 195.204 83.3161 194.441 83.8787 193.879C84.4413 193.316 85.2044 193 86.0001 193H94.0001C94.7957 193 95.5588 193.316 96.1214 193.879C96.684 194.441 97.0001 195.204 97.0001 196C97.0001 196.796 96.684 197.559 96.1214 198.121C95.5588 198.684 94.7957 199 94.0001 199V199ZM86.0001 195C85.7348 195 85.4805 195.105 85.293 195.293C85.1054 195.48 85.0001 195.735 85.0001 196C85.0001 196.265 85.1054 196.52 85.293 196.707C85.4805 196.895 85.7348 197 86.0001 197H94.0001C94.2653 197 94.5196 196.895 94.7072 196.707C94.8947 196.52 95.0001 196.265 95.0001 196C95.0001 195.735 94.8947 195.48 94.7072 195.293C94.5196 195.105 94.2653 195 94.0001 195H86.0001ZM84.0001 202C83.8023 202 83.6089 202.059 83.4445 202.169C83.28 202.278 83.1519 202.435 83.0762 202.617C83.0005 202.8 82.9807 203.001 83.0193 203.195C83.0579 203.389 83.1531 203.567 83.293 203.707C83.4328 203.847 83.611 203.942 83.805 203.981C83.999 204.019 84.2 204 84.3827 203.924C84.5655 203.848 84.7216 203.72 84.8315 203.556C84.9414 203.391 85.0001 203.198 85.0001 203C85.0001 202.735 84.8947 202.48 84.7072 202.293C84.5196 202.105 84.2653 202 84.0001 202ZM88.0001 202C87.8023 202 87.6089 202.059 87.4445 202.169C87.28 202.278 87.1519 202.435 87.0762 202.617C87.0005 202.8 86.9807 203.001 87.0193 203.195C87.0579 203.389 87.1531 203.567 87.293 203.707C87.4328 203.847 87.611 203.942 87.805 203.981C87.999 204.019 88.2 204 88.3827 203.924C88.5655 203.848 88.7216 203.72 88.8315 203.556C88.9414 203.391 89.0001 203.198 89.0001 203C89.0001 202.735 88.8947 202.48 88.7072 202.293C88.5196 202.105 88.2653 202 88.0001 202ZM92.0001 202C91.8023 202 91.6089 202.059 91.4445 202.169C91.28 202.278 91.1519 202.435 91.0762 202.617C91.0005 202.8 90.9807 203.001 91.0193 203.195C91.0579 203.389 91.1531 203.567 91.293 203.707C91.4328 203.847 91.611 203.942 91.805 203.981C91.999 204.019 92.2 204 92.3827 203.924C92.5655 203.848 92.7216 203.72 92.8315 203.556C92.9414 203.391 93.0001 203.198 93.0001 203C93.0001 202.735 92.8947 202.48 92.7072 202.293C92.5196 202.105 92.2653 202 92.0001 202ZM84.0001 206C83.8023 206 83.6089 206.059 83.4445 206.169C83.28 206.278 83.1519 206.435 83.0762 206.617C83.0005 206.8 82.9807 207.001 83.0193 207.195C83.0579 207.389 83.1531 207.567 83.293 207.707C83.4328 207.847 83.611 207.942 83.805 207.981C83.999 208.019 84.2 208 84.3827 207.924C84.5655 207.848 84.7216 207.72 84.8315 207.556C84.9414 207.391 85.0001 207.198 85.0001 207C85.0001 206.735 84.8947 206.48 84.7072 206.293C84.5196 206.105 84.2653 206 84.0001 206ZM88.0001 206C87.8023 206 87.6089 206.059 87.4445 206.169C87.28 206.278 87.1519 206.435 87.0762 206.617C87.0005 206.8 86.9807 207.001 87.0193 207.195C87.0579 207.389 87.1531 207.567 87.293 207.707C87.4328 207.847 87.611 207.942 87.805 207.981C87.999 208.019 88.2 208 88.3827 207.924C88.5655 207.848 88.7216 207.72 88.8315 207.556C88.9414 207.391 89.0001 207.198 89.0001 207C89.0001 206.735 88.8947 206.48 88.7072 206.293C88.5196 206.105 88.2653 206 88.0001 206ZM96.0001 202C95.8023 202 95.6089 202.059 95.4445 202.169C95.28 202.278 95.1519 202.435 95.0762 202.617C95.0005 202.8 94.9807 203.001 95.0193 203.195C95.0579 203.389 95.1531 203.567 95.293 203.707C95.4328 203.847 95.611 203.942 95.805 203.981C95.999 204.019 96.2 204 96.3827 203.924C96.5655 203.848 96.7217 203.72 96.8315 203.556C96.9414 203.391 97.0001 203.198 97.0001 203C97.0001 202.735 96.8947 202.48 96.7072 202.293C96.5196 202.105 96.2653 202 96.0001 202ZM97.0001 207C97.0001 206.735 96.8947 206.48 96.7072 206.293C96.5196 206.105 96.2653 206 96.0001 206H92.0001C91.7348 206 91.4805 206.105 91.293 206.293C91.1054 206.48 91.0001 206.735 91.0001 207C91.0001 207.265 91.1054 207.52 91.293 207.707C91.4805 207.895 91.7348 208 92.0001 208H96.0001C96.2653 208 96.5196 207.895 96.7072 207.707C96.8947 207.52 97.0001 207.265 97.0001 207Z" fill="#374957"/>
</g>
<g clip-path="url(#clip22_605_5657)">
<path d="M156.5 192.976H153.414C153.216 192.976 153.023 193.035 152.858 193.145C152.694 193.255 152.566 193.411 152.49 193.593C152.414 193.776 152.395 193.977 152.433 194.171C152.472 194.365 152.567 194.543 152.707 194.683L153.793 195.769L150.207 199.354C150.016 199.536 149.763 199.638 149.499 199.638C149.236 199.638 148.982 199.536 148.792 199.354L148.622 199.183C148.05 198.637 147.291 198.332 146.5 198.332C145.71 198.332 144.95 198.637 144.379 199.183L139.279 204.283C139.091 204.472 138.986 204.727 138.986 204.993C138.986 205.259 139.092 205.514 139.281 205.702C139.469 205.89 139.725 205.995 139.991 205.995C140.257 205.995 140.512 205.889 140.7 205.7L145.8 200.6C145.99 200.418 146.244 200.316 146.507 200.316C146.771 200.316 147.024 200.418 147.215 200.6L147.385 200.771C147.956 201.317 148.716 201.621 149.506 201.621C150.296 201.621 151.056 201.317 151.628 200.771L155.214 197.185L156.3 198.271C156.44 198.409 156.618 198.502 156.811 198.539C157.004 198.576 157.203 198.556 157.385 198.48C157.566 198.404 157.721 198.277 157.831 198.114C157.94 197.95 157.999 197.759 158 197.562V194.476C158 194.078 157.842 193.697 157.561 193.415C157.279 193.134 156.898 192.976 156.5 192.976Z" fill="#374957"/>
<path d="M157 210.976H139C138.204 210.976 137.441 210.66 136.879 210.097C136.316 209.535 136 208.772 136 207.976V190C136 189.735 135.895 189.48 135.707 189.293C135.52 189.105 135.265 189 135 189C134.735 189 134.48 189.105 134.293 189.293C134.105 189.48 134 189.735 134 190V207.976C134.002 209.302 134.529 210.572 135.466 211.51C136.404 212.447 137.674 212.974 139 212.976H157C157.265 212.976 157.52 212.871 157.707 212.683C157.895 212.496 158 212.241 158 211.976C158 211.711 157.895 211.456 157.707 211.269C157.52 211.081 157.265 210.976 157 210.976Z" fill="#374957"/>
</g>
<defs>
<clipPath id="clip0_605_5657">
<rect width="24" height="24" fill="white" transform="translate(22 133)"/>
</clipPath>
<clipPath id="clip1_605_5657">
<rect width="24" height="24" fill="white" transform="translate(22 301)"/>
</clipPath>
<clipPath id="clip2_605_5657">
<rect width="24" height="24" fill="white" transform="translate(190 133)"/>
</clipPath>
<clipPath id="clip3_605_5657">
<rect width="24" height="24" fill="white" transform="translate(190 301)"/>
</clipPath>
<clipPath id="clip4_605_5657">
<rect width="24" height="24" fill="white" transform="translate(78 133)"/>
</clipPath>
<clipPath id="clip5_605_5657">
<rect width="24" height="24" fill="white" transform="translate(134 133)"/>
</clipPath>
<clipPath id="clip6_605_5657">
<rect width="24" height="24" fill="white" transform="translate(22 133)"/>
</clipPath>
<clipPath id="clip7_605_5657">
<rect width="24" height="24" fill="white" transform="translate(22 133)"/>
</clipPath>
<clipPath id="clip8_605_5657">
<rect width="24" height="24" fill="white" transform="translate(22 301)"/>
</clipPath>
<clipPath id="clip9_605_5657">
<rect width="24" height="24" fill="white" transform="translate(190 133)"/>
</clipPath>
<clipPath id="clip10_605_5657">
<rect width="24" height="24" fill="white" transform="translate(190 301)"/>
</clipPath>
<clipPath id="clip11_605_5657">
<rect width="24" height="24" fill="white" transform="translate(134 301)"/>
</clipPath>
<clipPath id="clip12_605_5657">
<rect width="24" height="24" fill="white" transform="translate(78 133)"/>
</clipPath>
<clipPath id="clip13_605_5657">
<rect width="24" height="24" fill="white" transform="translate(78 301)"/>
</clipPath>
<clipPath id="clip14_605_5657">
<rect width="24" height="24" fill="white" transform="translate(22 189)"/>
</clipPath>
<clipPath id="clip15_605_5657">
<rect width="24" height="24" fill="white" transform="translate(190 189)"/>
</clipPath>
<clipPath id="clip16_605_5657">
<rect width="24" height="24" fill="white" transform="translate(134 133)"/>
</clipPath>
<clipPath id="clip17_605_5657">
<rect width="24" height="24" fill="white" transform="translate(190 242)"/>
</clipPath>
<clipPath id="clip18_605_5657">
<rect width="24" height="24" fill="white" transform="translate(78 245)"/>
</clipPath>
<clipPath id="clip19_605_5657">
<rect width="24" height="24" fill="white" transform="translate(22 242)"/>
</clipPath>
<clipPath id="clip20_605_5657">
<rect width="24" height="24" fill="white" transform="translate(134 242)"/>
</clipPath>
<clipPath id="clip21_605_5657">
<rect width="24" height="24" fill="white" transform="translate(78 189)"/>
</clipPath>
<clipPath id="clip22_605_5657">
<rect width="24" height="24" fill="white" transform="translate(134 189)"/>
</clipPath>
</defs>
</svg>
